<?xml version="1.0" encoding="iso-8859-1"?>
<!-- Generator: Adobe Illustrator 19.0.0, SVG Export Plug-In . SVG Version: 6.00 Build 0)  -->
<svg version="1.1" id="Layer_1" xmlns="http://www.w3.org/2000/svg" xmlns:xlink="http://www.w3.org/1999/xlink" x="0px" y="0px"
	 viewBox="0 0 512.001 512.001" style="enable-background:new 0 0 512.001 512.001;" xml:space="preserve">
<rect x="183.974" y="357.983" style="fill:#666666;" width="144.051" height="108.341"/>
<polygon style="fill:#333333;" points="183.976,376.721 269.688,376.721 183.976,434.625 "/>
<g>
	<path style="fill:#D6D6D6;" d="M369.521,487.281H142.496c-8.826-0.026-15.974-7.174-16-16l0,0c0.026-8.826,7.174-15.974,16-16
		h227.008c8.826,0.026,15.974,7.174,16,16l0,0C385.505,480.111,378.35,487.273,369.521,487.281z"/>
	<path style="fill:#D6D6D6;" d="M480.001,376.721H32c-17.652-0.052-31.948-14.349-32-32v-288c0.052-17.652,14.349-31.947,32-32h448
		c17.651,0.052,31.947,14.349,32,32v288C511.948,362.372,497.651,376.669,480.001,376.721z"/>
</g>
<rect x="21.968" y="46.654" width="468.096" height="308.124"/>
<g>
	<path style="fill:#E21B1B;" d="M69,204.857c0.258,6.565,5.79,11.677,12.355,11.42c0.379-0.015,0.758-0.048,1.134-0.099
		c4.131,0.109,8.245-0.561,12.128-1.976l1.6,7.64c-4.875,1.855-10.057,2.77-15.272,2.696c-11.381,1.052-21.461-7.322-22.513-18.704
		c-0.106-1.142-0.116-2.289-0.031-3.432c-1.039-11.915,7.778-22.416,19.693-23.455c0.559-0.048,1.12-0.076,1.683-0.081
		c10.507,0.009,19.016,8.534,19.007,19.041c-0.001,0.751-0.045,1.501-0.135,2.247c0.011,1.565-0.11,3.128-0.36,4.672L69,204.857z
		 M88.2,197.129c0.708-5.147-2.89-9.895-8.037-10.603c-0.346-0.047-0.694-0.076-1.043-0.085c-5.667,0.344-10.104,5.011-10.16,10.688
		H88.2z"/>
	<path style="fill:#E21B1B;" d="M129.817,195.873v7.64h-22.92v-7.64H129.817z"/>
	<path style="fill:#E21B1B;" d="M138.401,159.849h11.2v63.792h-11.2V159.849z"/>
	<path style="fill:#E21B1B;" d="M169.312,204.857c0.258,6.565,5.79,11.677,12.355,11.42c0.379-0.015,0.758-0.048,1.134-0.099
		c4.131,0.109,8.245-0.561,12.128-1.976l1.6,7.64c-4.875,1.855-10.057,2.77-15.272,2.696c-11.382,1.047-21.458-7.331-22.505-18.713
		c-0.105-1.139-0.115-2.283-0.03-3.424c-1.039-11.915,7.778-22.416,19.693-23.455c0.559-0.048,1.12-0.076,1.683-0.081
		c10.507,0.009,19.016,8.534,19.007,19.041c-0.001,0.751-0.045,1.501-0.135,2.247c0.011,1.565-0.11,3.128-0.36,4.672
		L169.312,204.857z M188.512,197.129c0.708-5.147-2.89-9.895-8.037-10.603c-0.346-0.047-0.694-0.076-1.043-0.085
		c-5.667,0.344-10.104,5.011-10.16,10.688H188.512z"/>
	<path style="fill:#E21B1B;" d="M232.464,223.641l-0.72-4.848h-0.272c-3.189,3.826-7.957,5.975-12.936,5.832
		c-7.159,0.415-13.299-5.051-13.714-12.21c-0.016-0.271-0.023-0.542-0.021-0.814c0-11.056,9.792-16.624,25.96-16.528v-0.72
		c0-2.872-1.168-7.64-8.888-7.64c-4.138-0.002-8.201,1.103-11.768,3.2l-2.16-7.2c4.843-2.649,10.297-3.979,15.816-3.856
		c8.978-1.015,17.079,5.441,18.093,14.419c0.149,1.323,0.137,2.66-0.037,3.98v15.816c-0.055,3.515,0.156,7.029,0.632,10.512
		L232.464,223.641z M231.024,202.257c-7.824-0.176-15.272,1.52-15.272,8.168c-0.282,3.191,2.076,6.007,5.267,6.288
		c0.34,0.03,0.681,0.03,1.021,0c3.873,0.07,7.352-2.358,8.624-6.016c0.244-0.777,0.365-1.586,0.36-2.4V202.257z"/>
	<path style="fill:#E21B1B;" d="M253.472,193.993c0-5.928-0.096-10.16-0.36-14.112h9.6l0.36,8.36h0.36
		c1.578-5.349,6.38-9.104,11.952-9.344c0.877-0.01,1.751,0.079,2.608,0.264v10.4c-1.051-0.231-2.124-0.352-3.2-0.36
		c-4.963-0.133-9.234,3.483-9.92,8.4c-0.22,1.126-0.34,2.269-0.36,3.416v22.64h-11.04L253.472,193.993L253.472,193.993z"/>
	<path style="fill:#E21B1B;" d="M285.449,192.914c0-5.032-0.088-9.256-0.36-13.032h9.704l0.536,6.56h0.264
		c2.954-4.83,8.269-7.707,13.928-7.544c7.632,0,15.536,4.936,15.536,18.776v25.968h-11.04v-24.712c0-6.288-2.336-11.048-8.36-11.048
		c-3.962,0.095-7.426,2.694-8.624,6.472c-0.343,1.165-0.494,2.378-0.448,3.592v25.696h-11.136v-30.728H285.449z"/>
	<path style="fill:#E21B1B;" d="M348.592,167.665c0.106,3.427-2.586,6.291-6.013,6.397c-3.427,0.106-6.291-2.586-6.397-6.013
		c-0.106-3.427,2.586-6.291,6.013-6.397c0.065-0.002,0.131-0.003,0.198-0.003c3.228-0.191,6,2.271,6.192,5.5
		C348.595,167.321,348.597,167.493,348.592,167.665z M336.816,223.666v-43.76H348v43.76H336.816z"/>
	<path style="fill:#E21B1B;" d="M359.816,192.914c0-5.032-0.096-9.256-0.36-13.032h9.704l0.536,6.56h0.272
		c2.948-4.832,8.262-7.711,13.92-7.544c7.64,0,15.544,4.936,15.544,18.776v25.968h-11.048v-24.712
		c0-6.288-2.336-11.048-8.352-11.048c-3.963,0.09-7.43,2.691-8.624,6.472c-0.346,1.165-0.499,2.378-0.456,3.592v25.696h-11.135
		V192.914z"/>
	<path style="fill:#E21B1B;" d="M451.2,179.881c-0.184,2.968-0.36,6.56-0.36,12.576v24.8c0.792,7.241-1.565,14.473-6.472,19.856
		c-4.803,3.749-10.804,5.632-16.888,5.296c-5.309,0.163-10.57-1.041-15.28-3.496l2.4-8.36c3.904,2.169,8.294,3.314,12.76,3.328
		c6.397,0.584,12.057-4.128,12.642-10.526c0.082-0.894,0.059-1.794-0.065-2.682v-3.776h-0.176c-2.854,4.212-7.675,6.658-12.76,6.472
		c-10.707-0.389-19.072-9.385-18.683-20.092c0.016-0.431,0.045-0.863,0.091-1.292c-1.193-11.51,7.171-21.807,18.681-23
		c0.388-0.04,0.777-0.07,1.167-0.088c5.17-0.287,10.064,2.353,12.664,6.832h0.184l0.448-5.84L451.2,179.881z M439.784,197.402
		c0.021-1.002-0.1-2.001-0.36-2.968c-0.971-4.173-4.7-7.118-8.984-7.096c-6.192,0-10.784,5.392-10.784,14.28
		c0,7.464,3.776,13.48,10.696,13.48c4.125-0.017,7.762-2.709,8.984-6.648c0.285-1.299,0.435-2.623,0.448-3.952L439.784,197.402z"/>
</g>
<g>
</g>
<g>
</g>
<g>
</g>
<g>
</g>
<g>
</g>
<g>
</g>
<g>
</g>
<g>
</g>
<g>
</g>
<g>
</g>
<g>
</g>
<g>
</g>
<g>
</g>
<g>
</g>
<g>
</g>
</svg>
